<svg xmlns="http://www.w3.org/2000/svg" width="101.062" height="101.14" viewBox="0 0 101.062 101.14"><defs><style>.a{fill:#ff2929;}</style></defs><g transform="translate(-22.771 -2.155)"><path class="a" d="M243.529,86.859h5.441a8.218,8.218,0,0,0,0-16.436H253.1a8.218,8.218,0,0,0,0-16.436h2.753a8.218,8.218,0,0,0,0-16.436H223.375l3.773-12.28c1.688-6.819,1.625-14.178-3.487-19a37.056,37.056,0,0,0-4.735-3.421,4.383,4.383,0,0,0-6.7,2.96c-2.031,12.8-9.812,25.385-20.842,32.567h0v64.913h52.146a8.218,8.218,0,1,0,0-16.435Z" transform="translate(-140.242 0)"/><path class="a" d="M91.511,129.681h19.848v64.913H91.511Z" transform="translate(-68.74 -91.3)"/></g></svg>