<svg xmlns="http://www.w3.org/2000/svg" width="326.796" height="54.889" viewBox="0 0 326.796 54.889"><defs><style>.a{fill:#fff;}</style></defs><g transform="translate(-39.75 -2921.349)"><g transform="translate(41.998 2957.731)"><path class="a" d="M65.7,3151.386l-.855-2.247H57.566l-.855,2.3a8.014,8.014,0,0,1-.854,1.812,1.358,1.358,0,0,1-1.16.47,1.7,1.7,0,0,1-1.209-.5,1.533,1.533,0,0,1-.525-1.136,2.527,2.527,0,0,1,.122-.757q.122-.39.4-1.086l4.578-11.622.47-1.2a6.1,6.1,0,0,1,.586-1.166,2.383,2.383,0,0,1,.818-.751,2.508,2.508,0,0,1,1.251-.287,2.536,2.536,0,0,1,1.264.287,2.433,2.433,0,0,1,.818.739,5.161,5.161,0,0,1,.525.97q.214.52.543,1.386l4.675,11.549a5.8,5.8,0,0,1,.549,1.917,1.585,1.585,0,0,1-.519,1.141,1.7,1.7,0,0,1-1.251.519,1.627,1.627,0,0,1-.732-.152,1.5,1.5,0,0,1-.513-.416,3.8,3.8,0,0,1-.446-.805Q65.868,3151.8,65.7,3151.386Zm-7.178-4.969h5.347l-2.7-7.386Z" transform="translate(-52.964 -3135.211)"/><path class="a" d="M202.541,3147.93h-3.32V3153a2.364,2.364,0,0,1-.513,1.648,1.806,1.806,0,0,1-2.612.006,2.359,2.359,0,0,1-.5-1.63v-13.795a2.255,2.255,0,0,1,.549-1.709,2.5,2.5,0,0,1,1.746-.513h4.651a12.184,12.184,0,0,1,3.174.318,4.726,4.726,0,0,1,1.9,1.013,4.569,4.569,0,0,1,1.215,1.734,6.106,6.106,0,0,1,.415,2.308,5.1,5.1,0,0,1-1.685,4.144A7.659,7.659,0,0,1,202.541,3147.93Zm-.879-8.2h-2.442v5.469h2.442a7.289,7.289,0,0,0,2.142-.269,2.5,2.5,0,0,0,1.312-.879,2.625,2.625,0,0,0,.452-1.6,2.711,2.711,0,0,0-.7-1.928Q204.092,3139.726,201.662,3139.726Z" transform="translate(-171.331 -3136.699)"/><path class="a" d="M329.96,3147.93h-3.32V3153a2.363,2.363,0,0,1-.513,1.648,1.806,1.806,0,0,1-2.612.006,2.358,2.358,0,0,1-.5-1.63v-13.795a2.254,2.254,0,0,1,.549-1.709,2.5,2.5,0,0,1,1.746-.513h4.651a12.184,12.184,0,0,1,3.174.318,4.728,4.728,0,0,1,1.9,1.013,4.569,4.569,0,0,1,1.215,1.734,6.1,6.1,0,0,1,.415,2.308,5.1,5.1,0,0,1-1.685,4.144A7.659,7.659,0,0,1,329.96,3147.93Zm-.879-8.2H326.64v5.469h2.442a7.289,7.289,0,0,0,2.143-.269,2.5,2.5,0,0,0,1.312-.879,2.625,2.625,0,0,0,.452-1.6,2.711,2.711,0,0,0-.7-1.928Q331.511,3139.726,329.081,3139.726Z" transform="translate(-277.074 -3136.699)"/></g><path class="a" d="M64.364,2942.8a7.355,7.355,0,0,1-.65,2.853,10.288,10.288,0,0,1-2.043,3.013,10.434,10.434,0,0,1-3.559,2.4,12.8,12.8,0,0,1-5.047.923,17.641,17.641,0,0,1-3.974-.415,11.159,11.159,0,0,1-3.249-1.29,10.934,10.934,0,0,1-2.684-2.307,13.673,13.673,0,0,1-1.864-2.91,15.137,15.137,0,0,1-1.158-3.436,18.733,18.733,0,0,1-.386-3.88,17.208,17.208,0,0,1,.97-5.97,12.742,12.742,0,0,1,2.778-4.51,12.121,12.121,0,0,1,4.237-2.853,13.729,13.729,0,0,1,5.179-.979,12.941,12.941,0,0,1,5.97,1.337,10.815,10.815,0,0,1,4.011,3.3,6.527,6.527,0,0,1,1.394,3.72,2.422,2.422,0,0,1-.678,1.694,2.149,2.149,0,0,1-1.638.735,2.262,2.262,0,0,1-1.61-.509,7.023,7.023,0,0,1-1.2-1.751,8.43,8.43,0,0,0-2.57-3.07,6.278,6.278,0,0,0-3.644-1.017,6.6,6.6,0,0,0-5.49,2.618q-2.044,2.618-2.043,7.438a13.817,13.817,0,0,0,.9,5.358,6.762,6.762,0,0,0,2.561,3.192,7.06,7.06,0,0,0,3.88,1.055,6.813,6.813,0,0,0,4.077-1.2,7.228,7.228,0,0,0,2.514-3.513,5.971,5.971,0,0,1,.885-1.779,2,2,0,0,1,1.695-.687,2.371,2.371,0,0,1,1.714.7A2.321,2.321,0,0,1,64.364,2942.8Z" transform="translate(0 -1.732)"/><path class="a" d="M492.371,2949.65l-4.426-17.589v19.059a3.469,3.469,0,0,1-.706,2.373,2.593,2.593,0,0,1-3.719.01,3.431,3.431,0,0,1-.716-2.382v-21.846a2.736,2.736,0,0,1,.942-2.438,4.505,4.505,0,0,1,2.542-.631h1.733a6.6,6.6,0,0,1,2.269.283,1.906,1.906,0,0,1,1.045,1.017,15.846,15.846,0,0,1,.772,2.392l4.011,15.122,4.011-15.122a15.819,15.819,0,0,1,.772-2.392,1.906,1.906,0,0,1,1.045-1.017,6.6,6.6,0,0,1,2.269-.283h1.732a4.507,4.507,0,0,1,2.542.631,2.737,2.737,0,0,1,.942,2.438v21.846a3.469,3.469,0,0,1-.706,2.373,2.412,2.412,0,0,1-1.893.791,2.354,2.354,0,0,1-1.827-.791,3.437,3.437,0,0,1-.716-2.373v-19.059l-4.426,17.589q-.433,1.714-.706,2.514a3.473,3.473,0,0,1-1.007,1.46,2.938,2.938,0,0,1-2.034.659,2.975,2.975,0,0,1-2.712-1.507,6.147,6.147,0,0,1-.593-1.46Q492.6,2950.517,492.371,2949.65Z" transform="translate(-367.683 -4.029)"/><path class="a" d="M736.638,2930.517h-12.6v6.78h11.6a2.762,2.762,0,0,1,1.911.574,1.952,1.952,0,0,1,.631,1.516,2.025,2.025,0,0,1-.622,1.535,2.7,2.7,0,0,1-1.921.594h-11.6v7.853h13.032a2.853,2.853,0,0,1,1.987.612,2.1,2.1,0,0,1,.668,1.63,2.058,2.058,0,0,1-.668,1.591,2.851,2.851,0,0,1-1.987.612h-15.2a2.928,2.928,0,0,1-3.428-3.427v-20.753a4.651,4.651,0,0,1,.358-1.968,2.222,2.222,0,0,1,1.12-1.111,4.712,4.712,0,0,1,1.949-.349h14.765a2.87,2.87,0,0,1,1.987.593,2,2,0,0,1,.65,1.554,2.027,2.027,0,0,1-.65,1.573A2.869,2.869,0,0,1,736.638,2930.517Z" transform="translate(-563.238 -4.029)"/><path class="a" d="M922.666,2926.788l10.753,16.272v-16.422a3.605,3.605,0,0,1,.688-2.4,2.319,2.319,0,0,1,1.855-.8,2.392,2.392,0,0,1,1.9.8,3.574,3.574,0,0,1,.7,2.4v21.714q0,3.635-3.013,3.635a4.015,4.015,0,0,1-1.356-.217,3.445,3.445,0,0,1-1.13-.688,6.659,6.659,0,0,1-.979-1.1q-.452-.631-.9-1.29l-10.49-16.083v16.177a3.452,3.452,0,0,1-.734,2.391,2.43,2.43,0,0,1-1.883.81,2.4,2.4,0,0,1-1.9-.82,3.516,3.516,0,0,1-.715-2.382v-21.3a6.032,6.032,0,0,1,.3-2.128,3.037,3.037,0,0,1,1.186-1.384,3.228,3.228,0,0,1,1.789-.537,3.086,3.086,0,0,1,1.29.245,3.122,3.122,0,0,1,.942.659,6.852,6.852,0,0,1,.829,1.074Q922.214,2926.073,922.666,2926.788Z" transform="translate(-726.731 -1.732)"/><path class="a" d="M1148.9,2943.229a8.113,8.113,0,0,1-1.29,4.5,8.57,8.57,0,0,1-3.776,3.126,14.146,14.146,0,0,1-5.895,1.13,13.264,13.264,0,0,1-6.742-1.544,8.987,8.987,0,0,1-3.06-2.966,6.734,6.734,0,0,1-1.177-3.607,2.444,2.444,0,0,1,2.5-2.467,2.126,2.126,0,0,1,1.5.564,4.453,4.453,0,0,1,1.045,1.677,11.174,11.174,0,0,0,1.139,2.2,4.617,4.617,0,0,0,1.723,1.46,6.366,6.366,0,0,0,2.919.574,6.582,6.582,0,0,0,4.04-1.159,3.482,3.482,0,0,0,1.554-2.89,3.056,3.056,0,0,0-.838-2.231,5.4,5.4,0,0,0-2.166-1.309q-1.328-.452-3.55-.96a26.018,26.018,0,0,1-4.981-1.629,8.046,8.046,0,0,1-3.182-2.542,6.6,6.6,0,0,1-1.177-4,6.876,6.876,0,0,1,1.243-4.049,7.836,7.836,0,0,1,3.6-2.721,14.73,14.73,0,0,1,5.537-.951,13.7,13.7,0,0,1,4.4.631,9.29,9.29,0,0,1,3.079,1.676,7.006,7.006,0,0,1,1.789,2.194,5.063,5.063,0,0,1,.565,2.241,2.65,2.65,0,0,1-.706,1.8,2.252,2.252,0,0,1-1.761.8,2.024,2.024,0,0,1-1.459-.48,6.455,6.455,0,0,1-1.083-1.572,7.134,7.134,0,0,0-1.808-2.439,5.288,5.288,0,0,0-3.39-.876,5.872,5.872,0,0,0-3.493.951,2.766,2.766,0,0,0-1.328,2.288,2.319,2.319,0,0,0,.452,1.431,3.8,3.8,0,0,0,1.243,1.036,8.343,8.343,0,0,0,1.6.678q.81.245,2.674.716a42.413,42.413,0,0,1,4.228,1.205,12.861,12.861,0,0,1,3.22,1.6,6.6,6.6,0,0,1,2.072,2.382A7.633,7.633,0,0,1,1148.9,2943.229Z" transform="translate(-902.258 -1.732)"/><path class="a" d="M1337.19,2948.389l-1.319-3.465h-11.224l-1.318,3.54a12.383,12.383,0,0,1-1.318,2.8,2.1,2.1,0,0,1-1.789.726,2.624,2.624,0,0,1-1.865-.773,2.363,2.363,0,0,1-.81-1.751,3.907,3.907,0,0,1,.189-1.167q.188-.6.621-1.677l7.062-17.928.725-1.855a9.373,9.373,0,0,1,.9-1.8,3.675,3.675,0,0,1,1.262-1.158,3.87,3.87,0,0,1,1.93-.443,3.913,3.913,0,0,1,1.949.443,3.752,3.752,0,0,1,1.262,1.14,7.975,7.975,0,0,1,.81,1.5q.329.8.838,2.138l7.213,17.815a8.954,8.954,0,0,1,.848,2.957,2.448,2.448,0,0,1-.8,1.761,2.634,2.634,0,0,1-1.93.8,2.5,2.5,0,0,1-1.13-.236,2.312,2.312,0,0,1-.791-.64,5.873,5.873,0,0,1-.688-1.243Q1337.453,2949.03,1337.19,2948.389Zm-11.074-7.665h8.249l-4.162-11.394Z" transform="translate(-1060.421 -1.732)"/><path class="a" d="M260.979,2921.349a14.553,14.553,0,1,0,14.553,14.554A14.554,14.554,0,0,0,260.979,2921.349Zm0,24.944a10.39,10.39,0,1,1,10.389-10.39A10.4,10.4,0,0,1,260.979,2946.293Z" transform="translate(-171.517)"/><path class="a" d="M1542.509,2926.826V2942.7c0,2.33.554,4.2,2.884,4.2l-.053.023a2.988,2.988,0,0,1,2.081.659,2.145,2.145,0,0,1,.725,1.657,2.093,2.093,0,0,1-.716,1.648,3.068,3.068,0,0,1-2.09.631h-5a2.927,2.927,0,0,1-3.427-3.427v-21.262a3.7,3.7,0,0,1,.762-2.542,2.571,2.571,0,0,1,2.006-.847,2.665,2.665,0,0,1,2.043.838A3.629,3.629,0,0,1,1542.509,2926.826Z" transform="translate(-1242.472 -1.732)"/><path class="a" d="M1691.055,2930.517h-12.6v6.78h11.6a2.762,2.762,0,0,1,1.911.574,1.952,1.952,0,0,1,.631,1.516,2.026,2.026,0,0,1-.622,1.535,2.7,2.7,0,0,1-1.921.594h-11.6v7.853h13.032a2.852,2.852,0,0,1,1.987.612,2.1,2.1,0,0,1,.669,1.63,2.057,2.057,0,0,1-.669,1.591,2.85,2.85,0,0,1-1.987.612h-15.2a2.928,2.928,0,0,1-3.427-3.427v-20.753a4.655,4.655,0,0,1,.358-1.968,2.223,2.223,0,0,1,1.12-1.111,4.714,4.714,0,0,1,1.949-.349h14.765a2.87,2.87,0,0,1,1.987.593,2.006,2.006,0,0,1,.65,1.554,2.028,2.028,0,0,1-.65,1.573A2.869,2.869,0,0,1,1691.055,2930.517Z" transform="translate(-1355.292 -4.029)"/><path class="a" d="M1853.721,2943.229a8.115,8.115,0,0,1-1.29,4.5,8.569,8.569,0,0,1-3.776,3.126,14.143,14.143,0,0,1-5.894,1.13,13.264,13.264,0,0,1-6.742-1.544,8.983,8.983,0,0,1-3.06-2.966,6.733,6.733,0,0,1-1.177-3.607,2.444,2.444,0,0,1,2.5-2.467,2.127,2.127,0,0,1,1.5.564,4.456,4.456,0,0,1,1.045,1.677,11.168,11.168,0,0,0,1.139,2.2,4.616,4.616,0,0,0,1.723,1.46,6.367,6.367,0,0,0,2.919.574,6.583,6.583,0,0,0,4.04-1.159,3.482,3.482,0,0,0,1.554-2.89,3.056,3.056,0,0,0-.838-2.231,5.4,5.4,0,0,0-2.166-1.309q-1.328-.452-3.55-.96a26.028,26.028,0,0,1-4.981-1.629,8.045,8.045,0,0,1-3.182-2.542,6.6,6.6,0,0,1-1.177-4,6.875,6.875,0,0,1,1.243-4.049,7.834,7.834,0,0,1,3.6-2.721,14.728,14.728,0,0,1,5.537-.951,13.7,13.7,0,0,1,4.4.631,9.29,9.29,0,0,1,3.079,1.676,7.011,7.011,0,0,1,1.789,2.194,5.061,5.061,0,0,1,.565,2.241,2.648,2.648,0,0,1-.706,1.8,2.251,2.251,0,0,1-1.761.8,2.024,2.024,0,0,1-1.459-.48,6.464,6.464,0,0,1-1.083-1.572,7.129,7.129,0,0,0-1.808-2.439,5.288,5.288,0,0,0-3.39-.876,5.872,5.872,0,0,0-3.493.951,2.766,2.766,0,0,0-1.328,2.288,2.319,2.319,0,0,0,.452,1.431,3.8,3.8,0,0,0,1.243,1.036,8.348,8.348,0,0,0,1.6.678q.809.245,2.674.716a42.406,42.406,0,0,1,4.228,1.205,12.859,12.859,0,0,1,3.22,1.6,6.6,6.6,0,0,1,2.072,2.382A7.636,7.636,0,0,1,1853.721,2943.229Z" transform="translate(-1487.175 -1.732)"/><g transform="translate(80.537 2926.976)"><path class="a" d="M320.449,2984.946a2.38,2.38,0,1,0,2.38,2.38A2.386,2.386,0,0,0,320.449,2984.946Z" transform="translate(-311.509 -2979.754)"/><path class="a" d="M288.435,2954.422a8.927,8.927,0,1,0,8.927,8.928A8.936,8.936,0,0,0,288.435,2954.422Zm3.613,10.128,0,.005h0c-.662.882-2.382,3.222-3.321,4.475a.328.328,0,0,1-.514.024c-.009-.009-.022-.014-.03-.024l-3.26-4.391a4.413,4.413,0,1,1,7.13-.091Z" transform="translate(-279.51 -2954.422)"/></g></g></svg>