<svg xmlns="http://www.w3.org/2000/svg" width="124.822" height="135.572" viewBox="0 0 124.822 135.572"><defs><style>.a{fill:#ff2929;}</style></defs><g transform="translate(-20.298)"><path class="a" d="M202.988,133.242c0,.531-.019,1.06-.046,1.587h19.091c-.033-.581-.055-1.163-.055-1.748a30.294,30.294,0,0,1,6.054-18.2H196.811A30.3,30.3,0,0,1,202.988,133.242Z" transform="translate(-129.774 -84.459)"/><path class="a" d="M177.551,241.122a30.334,30.334,0,0,1-15.181-4.056l-19.94,4.093,5.844-20.751H126.885l5.889,20.912-19.94-4.092a30.331,30.331,0,0,1-15.181,4.056c-.908,0-1.805-.042-2.693-.12v26.073h84.811v-26.2q-1.1.079-2.221.081Zm-48.419,14.491h-8.394v-7.991h8.394Zm25.37,0h-8.394v-7.991H154.5Z" transform="translate(-54.893 -162.047)"/><path class="a" d="M141.361,427.435v7.155h-7.991v-7.155H94.961v12.108a10.3,10.3,0,0,0,10.284,10.284h64.243a10.3,10.3,0,0,0,10.284-10.284V427.435Z" transform="translate(-54.893 -314.255)"/><path class="a" d="M97.654,18.33a30.267,30.267,0,0,1,15.243,4.1h49.139a30.265,30.265,0,0,1,15.515-4.259q1.12,0,2.221.081V10.284A10.3,10.3,0,0,0,169.488,0H105.245A10.3,10.3,0,0,0,94.961,10.284V18.45c.888-.078,1.785-.12,2.693-.12Z" transform="translate(-54.893)"/><path class="a" d="M20.3,121.865a22.458,22.458,0,0,0,34.718,18.821l1.377-.9,10.24,2.1-3.161-11.224.432-1.2a22.464,22.464,0,1,0-43.606-7.6Zm30.579-9.63,5.65,5.65L40.189,134.222,28.218,122.251l5.65-5.65,6.321,6.321Z" transform="translate(0 -73.082)"/><path class="a" d="M318.123,121.257a22.4,22.4,0,0,0,1.32,7.6l.432,1.2-3.161,11.224,10.24-2.1,1.377.9a22.46,22.46,0,1,0-10.208-18.821Zm30.1-13.811,5.65,5.65-7.654,7.654,7.654,7.654-5.65,5.65-7.654-7.654-7.654,7.654-5.65-5.65,7.654-7.654-7.654-7.654,5.65-5.65,7.654,7.654Z" transform="translate(-217.928 -72.634)"/></g></svg>